<svg xmlns:dc="http://purl.org/dc/elements/1.1/" xmlns:cc="http://creativecommons.org/ns#" xmlns:rdf="http://www.w3.org/1999/02/22-rdf-syntax-ns#" xmlns:svg="http://www.w3.org/2000/svg" xmlns="http://www.w3.org/2000/svg" viewBox="0 0 572.89331 175.2" height="175.2" width="572.89331" xml:space="preserve" id="svg2" version="1.1" xmlns:xlink="http://www.w3.org/1999/xlink">
 <metadata id="metadata8">
  <rdf:RDF>
   <cc:Work rdf:about="">
    <dc:format>
     image/svg+xml
    </dc:format>
    <dc:type rdf:resource="http://purl.org/dc/dcmitype/StillImage">
    </dc:type>
   </cc:Work>
  </rdf:RDF>
 </metadata>
 <defs id="defs6">
 </defs>
 <g transform="matrix(1.3333333,0,0,-1.3333333,0,175.2)" id="g10">
  <g transform="scale(0.1)" id="g12">
   <path id="path14" style="fill:#192851;fill-opacity:1;fill-rule:nonzero;stroke:none" d="m 1807.95,717.992 c -43.73,0 -82.54,7.485 -116.41,22.406 -33.86,14.922 -61.07,35.719 -81.58,62.403 -20.54,26.66 -34,57.597 -40.41,92.801 l 97.6,24.796 c 4.8,-24.003 13.46,-44.543 26,-61.601 12.53,-17.07 28.53,-30.141 48,-39.199 19.46,-9.075 41.47,-13.606 66,-13.606 36.27,0 66,7.207 89.2,21.602 23.2,14.406 34.8,34.933 34.8,61.601 0,17.063 -4.94,30.664 -14.8,40.801 -9.86,10.129 -24.81,18.527 -44.81,25.203 -20,6.664 -48.92,13.723 -86.79,21.196 -43.73,9.597 -79.59,20.527 -107.6,32.805 -27.99,12.26 -49.73,28.92 -65.2,50 -15.46,21.06 -23.2,48.12 -23.2,81.2 0,34.65 9.06,64.52 27.21,89.6 18.12,25.05 43.32,44.12 75.58,57.2 32.27,13.06 69.48,19.59 111.61,19.59 38.39,0 72.26,-6.66 101.6,-20 29.33,-13.33 53.34,-31.87 72.01,-55.59 18.65,-23.74 31.99,-51.34 40,-82.81 L 1923.95,1122 c -9.07,32 -23.99,56.52 -44.79,73.6 -20.8,17.06 -46.95,25.6 -78.42,25.6 -33.06,0 -59.86,-6.68 -80.39,-20 -20.54,-13.34 -30.8,-30.94 -30.8,-52.81 0,-14.93 4.67,-27.07 14.01,-36.39 9.31,-9.34 22.93,-17.08 40.8,-23.2 17.85,-6.14 43.86,-12.94 77.99,-20.41 47.46,-9.59 86.01,-20.8 115.6,-33.59 29.61,-12.8 52.79,-30.28 69.61,-52.402 16.8,-22.136 25.2,-51.335 25.2,-87.597 0,-35.742 -9.61,-66.942 -28.81,-93.606 -19.2,-26.675 -45.73,-47.195 -79.59,-61.597 -33.89,-14.399 -72.68,-21.606 -116.41,-21.606">
   </path>
   <path id="path16" style="fill:#192851;fill-opacity:1;fill-rule:nonzero;stroke:none" d="m 2256.74,721.996 c -42.68,0 -73.34,9.867 -91.99,29.602 -18.67,19.726 -28.01,48 -28.01,84.797 V 1062 h -63.98 v 75.2 h 63.98 v 105.6 h 92.01 v -105.6 h 84.79 V 1062 h -84.79 V 841.195 c 0,-14.402 4.26,-24.8 12.79,-31.199 8.54,-6.394 21.06,-9.598 37.6,-9.598 8.54,0 20,0.797 34.4,2.403 v -72.805 c -19.73,-5.32 -38.68,-8 -56.8,-8">
   </path>
   <path id="path18" style="fill:#192851;fill-opacity:1;fill-rule:nonzero;stroke:none" d="m 2562.34,797.195 c 22.92,0 42.92,5.465 60,16.407 17.06,10.918 30.26,26.66 39.59,47.195 9.34,20.527 14.01,44.656 14.01,72.402 0,42.656 -10.14,76.261 -30.39,100.801 -20.29,24.52 -47.76,36.8 -82.4,36.8 -35.22,0 -63.09,-12.28 -83.62,-36.8 -20.52,-24.54 -30.8,-58.145 -30.8,-100.801 0,-27.746 4.67,-51.875 14.01,-72.402 9.33,-20.535 22.67,-36.277 40,-47.195 17.32,-10.942 37.2,-16.407 59.6,-16.407 z m -19.99,-79.203 c -36.8,0 -69.34,9.203 -97.6,27.61 -28.28,18.398 -50.41,43.859 -66.41,76.398 -15.99,32.52 -24,69.598 -24,111.199 0,42.121 8.01,79.601 24,112.401 16,32.79 38.13,58.4 66.41,76.8 28.26,18.4 60.8,27.6 97.6,27.6 27.18,0 52.26,-6 75.19,-18 22.93,-12 42.4,-28.68 58.4,-50 v 55.2 h 91.99 V 730.797 h -91.99 v 55.195 c -16,-21.875 -35.47,-38.672 -58.4,-50.39 -22.93,-11.731 -48.01,-17.61 -75.19,-17.61">
   </path>
   <path id="path20" style="fill:#192851;fill-opacity:1;fill-rule:nonzero;stroke:none" d="M 2843.13,730.797 V 1137.2 h 92.01 v -71.21 c 10.66,24.01 25.19,42.53 43.59,55.61 18.4,13.06 40.12,19.6 65.2,19.6 5.33,0 10,-0.14 14,-0.4 4,-0.28 8.4,-0.94 13.2,-2 v -87.2 c -8,1.6 -17.07,2.4 -27.2,2.4 -32.54,0 -58.79,-11.2 -78.79,-33.6 -20,-22.408 -30,-53.08 -30,-92.005 V 730.797 h -92.01">
   </path>
   <path id="path22" style="fill:#192851;fill-opacity:1;fill-rule:nonzero;stroke:none" d="M 3126.33,730.797 V 1310.8 h 91.19 V 730.797 h -91.19">
   </path>
   <path id="path24" style="fill:#192851;fill-opacity:1;fill-rule:nonzero;stroke:none" d="M 3293.52,730.797 V 1137.2 h 92.81 V 730.797 Z m 46.4,462.403 c -16.54,0 -30.54,5.86 -41.99,17.6 -11.48,11.73 -17.21,25.86 -17.21,42.4 0,16.52 5.73,30.8 17.21,42.79 11.45,12.01 25.45,18.01 41.99,18.01 16.53,0 30.8,-6 42.8,-18.01 12.01,-11.99 18,-26.27 18,-42.79 0,-16.54 -5.99,-30.67 -18,-42.4 -12,-11.74 -26.27,-17.6 -42.8,-17.6">
   </path>
   <path id="path26" style="fill:#192851;fill-opacity:1;fill-rule:nonzero;stroke:none" d="M 3462.33,730.797 V 1137.2 h 91.99 v -59.21 c 13.32,22.94 30.94,40.67 52.81,53.21 21.86,12.53 46.91,18.8 75.2,18.8 45.85,0 81.71,-14.8 107.59,-44.4 25.86,-29.61 38.79,-70.55 38.79,-122.799 V 730.797 h -92.79 v 245.598 c 0,30.925 -6.93,54.535 -20.8,70.805 -13.87,16.26 -34.4,24.4 -61.6,24.4 -19.2,0 -36.27,-5.21 -51.19,-15.61 -14.95,-10.39 -26.68,-24.93 -35.2,-43.59 -8.55,-18.673 -12.81,-40.537 -12.81,-65.607 V 730.797 h -91.99">
   </path>
   <path id="path28" style="fill:#192851;fill-opacity:1;fill-rule:nonzero;stroke:none" d="m 4092.72,812.398 c 22.93,0 42.79,5.325 59.59,15.997 16.79,10.664 29.86,25.722 39.2,45.207 9.33,19.461 14,42.515 14,69.199 0,40.523 -10,72.519 -30,95.999 -20,23.46 -47.34,35.2 -81.99,35.2 -35.22,0 -62.95,-11.74 -83.21,-35.2 -20.27,-23.48 -30.41,-55.476 -30.41,-95.999 0,-26.684 4.67,-49.738 14.01,-69.199 9.33,-19.485 22.52,-34.543 39.61,-45.207 17.05,-10.672 36.79,-15.997 59.2,-15.997 z m 4.8,-246.406 c -47.48,0 -88.42,10.403 -122.81,31.203 -34.4,20.797 -57.19,50.133 -68.4,88.004 l 88.01,23.196 c 7.99,-21.856 21.05,-38.399 39.2,-49.598 18.12,-11.203 40.25,-16.801 66.38,-16.801 22.41,0 41.47,3.996 57.21,12.004 15.72,7.996 27.73,19.871 36,35.598 8.26,15.742 12.4,35.078 12.4,57.996 v 53.601 c -16,-20.269 -35.33,-35.996 -57.99,-47.195 -22.68,-11.199 -47.62,-16.805 -74.8,-16.805 -36.29,0 -68.54,8.66 -96.8,26.004 -28.28,17.324 -50.41,41.602 -66.41,72.793 -15.99,31.203 -24,66.809 -24,106.809 0,40 8.01,75.719 24,107.199 16,31.46 38.13,55.99 66.41,73.6 28.26,17.6 60.51,26.4 96.8,26.4 27.18,0 52.26,-5.6 75.19,-16.8 22.93,-11.2 42.13,-27.21 57.6,-48 v 52 h 91.21 V 749.195 c 0,-37.859 -8.14,-70.527 -24.41,-98 -16.27,-27.457 -39.48,-48.523 -69.59,-63.203 -30.14,-14.656 -65.2,-22 -105.2,-22">
   </path>
   <path id="path30" style="fill:#192851;fill-opacity:1;fill-rule:nonzero;stroke:none" d="m 1873.56,92 c 28.79,0 51.32,7.7188 67.59,23.199 16.27,15.461 24.4,36.52 24.4,63.192 0,26.668 -8.13,48.007 -24.4,64.007 -16.27,15.993 -38.8,24 -67.59,24 H 1704.75 V 92 Z m -9.61,246.395 c 26.13,0 46.66,7.335 61.6,22.003 14.92,14.668 22.4,34.004 22.4,57.997 0,24.531 -7.48,43.73 -22.4,57.609 -14.94,13.855 -36,20.801 -63.2,20.801 h -157.6 V 338.395 Z M 1609.55,12.8008 V 576.004 h 270.41 c 33.05,0 61.86,-6.406 86.39,-19.199 24.53,-12.805 43.2,-30.403 56,-52.805 12.81,-22.402 19.19,-47.195 19.19,-74.402 0,-27.2 -6.93,-51.34 -20.8,-72.395 -13.86,-21.086 -32.79,-36.941 -56.79,-47.601 31.46,-10.68 55.6,-28.141 72.4,-52.403 16.8,-24.269 25.19,-52.937 25.19,-86 0,-29.879 -6.79,-56.937 -20.39,-81.199 -13.59,-24.2695 -32.93,-43.1992 -58,-56.8008 -25.06,-13.5976 -54.4,-20.3984 -87.99,-20.3984 h -285.61">
   </path>
   <path id="path32" style="fill:#192851;fill-opacity:1;fill-rule:nonzero;stroke:none" d="m 2313.54,79.1992 c 22.93,0 42.93,5.461 60,16.4024 17.07,10.9184 30.27,26.6604 39.61,47.1994 9.31,20.527 14,44.66 14,72.398 0,42.66 -10.16,76.262 -30.41,100.805 -20.27,24.519 -47.73,36.797 -82.4,36.797 -35.2,0 -63.07,-12.278 -83.6,-36.797 -20.54,-24.543 -30.8,-58.145 -30.8,-100.805 0,-27.738 4.67,-51.871 14.01,-72.398 9.31,-20.539 22.65,-36.281 40,-47.1994 17.32,-10.9414 37.18,-16.4024 59.59,-16.4024 z M 2293.54,0 c -36.8,0 -69.34,9.19922 -97.6,27.6016 C 2167.66,46 2145.55,71.4609 2129.53,104 c -15.99,32.52 -23.98,69.602 -23.98,111.199 0,42.121 7.99,79.602 23.98,112.406 16.02,32.793 38.13,58.399 66.41,76.797 28.26,18.399 60.8,27.594 97.6,27.594 27.2,0 52.26,-5.992 75.19,-17.996 22.93,-12.004 42.4,-28.672 58.42,-50 v 55.195 h 91.99 V 12.8008 h -91.99 V 67.9883 C 2411.13,46.1211 2391.66,29.3203 2368.73,17.6016 2345.8,5.87891 2320.74,0 2293.54,0">
   </path>
   <path id="path34" style="fill:#192851;fill-opacity:1;fill-rule:nonzero;stroke:none" d="M 2594.34,12.8008 V 419.195 h 91.99 v -59.199 c 13.32,22.93 30.94,40.664 52.81,53.203 21.86,12.531 46.92,18.797 75.2,18.797 45.86,0 81.72,-14.793 107.59,-44.391 25.86,-29.613 38.79,-70.546 38.79,-122.804 V 12.8008 h -92.79 V 258.391 c 0,30.929 -6.93,54.539 -20.8,70.804 -13.87,16.27 -34.39,24.407 -61.6,24.407 -19.2,0 -36.27,-5.207 -51.19,-15.61 -14.94,-10.387 -26.68,-24.933 -35.2,-43.594 -8.55,-18.668 -12.81,-40.539 -12.81,-65.597 V 12.8008 h -91.99">
   </path>
   <path id="path36" style="fill:#192851;fill-opacity:1;fill-rule:nonzero;stroke:none" d="M 3036.72,12.8008 V 592.801 h 91.19 v -328 l 158.4,154.394 h 116.02 L 3231.11,250.398 3406.31,12.8008 h -108.79 l -129.61,175.1872 -40,-39.187 V 12.8008 h -91.19">
   </path>
   <path id="path38" style="fill:#6935d3;fill-opacity:1;fill-rule:nonzero;stroke:none" d="M 1297.83,661.871 C 1297.83,303.48 1007.31,12.9609 648.918,12.9609 290.527,12.9609 0,303.48 0,661.871 c 0,358.389 290.527,648.919 648.918,648.919 358.392,0 648.912,-290.53 648.912,-648.919">
   </path>
   <path id="path40" style="fill:#ffffff;fill-opacity:1;fill-rule:nonzero;stroke:none" d="m 390.762,661.863 v 36.024 c 0,223.988 182.199,406.213 406.222,406.213 H 832.98 V 956.82 H 796.984 C 654.219,956.82 538.02,840.68 538.02,697.887 V 661.863 H 390.762">
   </path>
   <path id="path42" style="fill:#ffffff;fill-opacity:1;fill-rule:nonzero;stroke:none" d="m 907.07,661.891 v -36.028 c 0,-223.992 -182.195,-406.222 -406.218,-406.222 h -35.997 v 147.281 h 35.997 c 142.761,0 258.964,116.148 258.964,258.941 v 36.028 H 907.07">
   </path>
  </g>
 </g>
</svg>